<svg xmlns="http://www.w3.org/2000/svg" viewBox="0 0 993 742" width="993" height="742">
	<defs>
		<linearGradient id="grd1" gradientUnits="userSpaceOnUse"  x1="65663.257" y1="227307.029" x2="65663.257" y2="77522.524">
			<stop offset="0" stop-color="#808080" stop-opacity="0.25" />
			<stop offset="0.54" stop-color="#808080" stop-opacity="0.12" />
			<stop offset="1" stop-color="#808080" stop-opacity="0.1" />
		</linearGradient>
	</defs>
	<style>
		tspan { white-space:pre }
		.shp0 { fill: #f0f0f0 } 
		.shp1 { fill: #5493fc } 
		.shp2 { fill: #f7b6a1 } 
		.shp3 { fill: none;stroke: #5493fc } 
		.shp4 { fill: #ffb6b6 } 
		.shp5 { fill: #fbdece } 
		.shp6 { fill: none;stroke: #535461;stroke-width: 2 } 
		.shp7 { fill: #d15a37 } 
		.shp8 { fill: url(#grd1) } 
		.shp9 { fill: #ffb296 } 
		.shp10 { opacity: 0.102;fill: #000000 } 
		.shp11 { fill: #632652 } 
		.shp12 { fill: #e14b5a } 
		.shp13 { opacity: 0.051;fill: #000000 } 
	</style>
	<path id="Layer" class="shp0" d="M993 696.5C993 700.6 989.25 704.58 982.23 708.36C946.22 727.74 824.11 742 679 742C673.29 742 667.62 741.98 661.99 741.93C496.48 740.65 365 720.8 365 696.5C365 671.37 505.58 651 679 651C726.49 651 771.51 652.53 811.86 655.26C822 655.95 831.83 656.71 841.36 657.55C845.32 657.89 849.22 658.25 853.07 658.63C871.2 660.38 888 662.4 903.2 664.65C910.58 665.74 917.57 666.88 924.17 668.07C941.36 671.18 955.78 674.62 966.92 678.31C983.69 683.89 993 690.04 993 696.5Z" />
	<path id="Layer" class="shp0" d="M628 466C628 482.57 487.42 496 314 496C285.34 496 257.58 495.63 231.2 494.94C129.46 492.3 48.29 484.88 15.6 475.36C5.48 472.42 0 469.27 0 466C0 462.26 7.18 458.67 20.29 455.37C27.94 453.44 37.61 451.61 49.05 449.89C49.14 449.88 49.24 449.87 49.34 449.85C75.54 445.94 110.99 442.64 152.74 440.26C199.87 437.55 255.04 436 314 436C487.42 436 628 449.43 628 466Z" />
	<path id="Layer" class="shp1" d="M613.73 318.71L590.81 312.32C590.81 312.32 581.82 310.53 587.31 292.99C592.8 275.45 603.68 280.36 603.68 280.36L624.02 286.27L632.05 288.75L620.75 304.6L619.81 315.16L613.73 318.71Z" />
	<path id="Layer" class="shp1" d="M658.04 272.36L665.23 301.1L628.37 336.82L625.2 337.61L616.75 335.24L609.56 306.5L616.84 298.84L609.39 296.89L625.29 281.46L633.58 283.2L640.24 276.6L635.74 274.8L635.32 273.11L640.76 268.83L658.04 272.36L658.04 272.36Z" />
	<path id="Layer" class="shp2" d="M623.5 312.89L628.26 331.91L650.23 311.14L644.73 291.86L623.5 312.89L623.5 312.89Z" />
	<path id="Layer" class="shp3" d="M658.04 272.36L659.04 276.39L622.39 312.05L619.22 312.84L611.04 310.62L610.58 310.61L609.56 306.5L616.84 298.84L609.39 296.89L625.29 281.46L633.58 283.2L640.24 276.6L635.74 274.8L635.32 273.11L640.76 268.83L658.04 272.36L658.04 272.36Z" />
	<path id="Layer" class="shp2" d="M641.61 274.01C639.97 274.42 638.43 273.85 638.15 272.74C637.87 271.63 638.97 270.4 640.6 269.99C642.24 269.58 643.79 270.15 644.06 271.26C644.34 272.37 643.24 273.6 641.61 274.01Z" />
	<path id="Layer" class="shp2" d="M618.32 304.76C616.69 305.17 615.14 304.6 614.86 303.49C614.59 302.38 615.68 301.15 617.32 300.74C618.95 300.33 620.5 300.9 620.78 302.01C621.06 303.12 619.96 304.35 618.32 304.76Z" />
	<path id="Layer" class="shp4" d="M598.5 354.5L603.5 337.5C603.5 337.5 590.5 306.5 605.5 303.5C620.5 300.5 621.5 332.5 621.5 332.5L615.5 351.5L598.5 354.5Z" />
	<path id="Layer" class="shp4" d="M691.33 321.45C669.36 321.45 651.61 303.69 651.61 281.72C651.61 259.76 669.36 242 691.33 242C713.3 242 731.05 259.76 731.05 281.72C731.05 303.69 713.3 321.45 691.33 321.45Z" />
	<path id="Layer" class="shp4" d="M678.48 309.76C678.48 309.76 676.14 338.97 670.3 341.31C664.46 343.64 733.39 360 733.39 360L715.87 340.14C715.87 340.14 712.36 309.76 720.54 302.75L678.48 309.76Z" />
	<path id="Layer" class="shp0" d="M622.5 345.5L606.5 343.5C606.5 343.5 587.5 353.5 587.5 366.5C587.5 379.5 576.5 400.5 576.5 400.5C576.5 400.5 568.5 428.5 586.5 430.5C604.5 432.5 620.5 400.5 620.5 400.5L622.5 345.5Z" />
	<path id="Layer" class="shp5" d="M613.5 504.5C613.5 504.5 578.5 471.5 568.5 473.5C558.5 475.5 538.5 478.5 538.5 493.5C538.5 508.5 571.5 543.5 571.5 543.5C571.5 543.5 596.5 598.5 620.5 600.5C624.45 600.86 628.39 601.27 632.32 601.74C636.25 602.21 640.18 602.74 644.1 603.33C648.02 603.91 651.93 604.55 655.83 605.24C659.73 605.94 663.62 606.69 667.5 607.5C671.38 608.31 656.5 647.5 662.5 658.5C668.5 669.5 691.5 682.5 693.5 681.5C695.5 680.5 723.5 654.5 735.5 617.5C747.5 580.5 755.5 552.5 744.5 550.5C733.5 548.5 613.5 504.5 613.5 504.5Z" />
	<path id="Layer" class="shp5" d="M541.5 490.5C541.5 490.5 534.5 489.5 535.5 506.5C536.5 523.5 539.5 584.5 544.5 596.5C549.5 608.5 550.5 622.5 548.5 627.5C546.5 632.5 542.5 640.5 549.5 641.5C556.5 642.5 585.5 638.5 588.5 637.5C591.5 636.5 594.5 619.5 592.5 619.5C590.5 619.5 585.5 618.5 587.5 611.5C589.5 604.5 590.5 604.5 587.5 602.5C584.5 600.5 576.5 597.5 578.5 595.5C580.5 593.5 582.5 546.5 582.5 546.5L541.5 490.5Z" />
	<path id="Layer" class="shp5" d="M551.5 638.5C551.5 638.5 534.5 633.5 532.5 644.5C532.5 644.5 529.5 661.5 542.5 667.5C544.6 668.49 546.67 669.53 548.72 670.61C550.77 671.69 552.8 672.81 554.8 673.98C556.81 675.15 558.78 676.36 560.73 677.61C562.68 678.87 564.61 680.16 566.5 681.5C568.39 682.84 587.5 689.5 588.5 679.5C589.5 669.5 584.5 633.5 584.5 633.5L551.5 638.5Z" />
	<path id="Layer" class="shp5" d="M664.5 650.5L696.5 624.5C696.5 624.5 690.5 656.5 698.5 662.5L702.15 673.18L691.92 681.55C691.92 681.55 660.5 676.5 664.5 650.5Z" />
	<path id="Layer" class="shp5" d="M709.5 606.5C709.5 606.5 688.5 612.5 691.5 633.5C694.5 654.5 698.35 677.31 698.35 677.31C698.35 677.31 699.5 733.5 714.5 737.5C729.5 741.5 733.5 733.5 733.5 733.5C733.5 733.5 750.55 689.6 745.5 676.5C739.39 660.65 730.58 642.85 733.5 637.5C736.38 632.23 731.5 603.5 709.5 606.5Z" />
	<path id="Layer" class="shp0" d="M721.5 330.5C721.5 330.5 713.5 331.5 700.5 333.5C687.5 335.5 678.5 325.5 671.5 327.5C664.5 329.5 606.5 343.5 606.5 343.5L615.5 412.5C615.5 412.5 604.5 492.5 606.5 506.5C608.5 520.5 582.5 518.5 597.5 535.5C612.5 552.5 638.5 567.5 691.5 562.5C744.5 557.5 751.5 558.5 751.5 550.5C751.5 542.5 739.5 474.5 743.5 468.5C747.5 462.5 755.5 455.5 751.5 448.5C747.5 441.5 743.5 437.5 749.5 431.5C755.5 425.5 758.5 419.5 758.5 416.5C758.5 413.5 772.5 364.5 772.5 364.5C772.5 364.5 766.5 340.5 759.5 339.5C752.5 338.5 746.5 333.5 741.5 333.5C736.5 333.5 733.5 334.5 730.5 333.5L721.5 330.5Z" />
	<path id="Layer" fill-rule="evenodd" class="shp5" d="M625.6 267.79C626.12 265.48 628.64 257.75 633.76 255.87C637.5 254.49 644.47 257.4 647.95 256.92L648.39 255.65C648.47 255.02 648.56 254.4 648.68 253.78C648.79 253.16 648.93 252.55 649.08 251.94C649.24 251.33 649.41 250.72 649.61 250.12C649.8 249.52 650.02 248.93 650.25 248.35C651.16 246.01 652.31 243.77 653.67 241.67C655.04 239.56 656.61 237.6 658.37 235.81C660.12 234.02 662.05 232.41 664.13 231.01C666.21 229.61 668.43 228.42 670.74 227.46C682.18 222.68 700.26 218.72 715.96 231.25C737.51 248.45 733.71 274.2 732.14 281.34C731.88 282.53 731.66 283.73 731.47 284.94C730.51 291.23 727.72 291.98 727.72 291.98C727.72 291.98 727.78 291.8 727.88 291.47L708.41 293.36L697.89 291.56C697.71 292.59 697.64 293.2 697.64 293.2C666.93 288.51 649.06 272.33 646.16 269.52C643.6 271.22 638.85 273.98 634.24 274.58C627.5 275.47 625.09 270.1 625.6 267.79ZM704.74 283.26L729.47 282.36C729.82 275.61 728.08 267.71 718.14 267.31C708.55 266.92 703.32 274.71 700.55 281.85L704.74 283.26Z" />
	<path id="Layer" class="shp5" d="M702.87 224.64C702.71 225.54 700.66 225.94 698.28 225.53C695.89 225.13 694.09 224.07 694.24 223.16C694.4 222.26 696.45 221.86 698.83 222.27C701.22 222.68 703.02 223.73 702.87 224.64Z" />
	<path id="Layer" class="shp2" d="M371 52C356.62 52 345 40.38 345 26C345 11.62 356.62 0 371 0C385.38 0 397 11.62 397 26C397 40.38 385.38 52 371 52Z" />
	<path id="Layer" class="shp5" d="M328.03 191.24C327.94 190.89 319.24 155.71 317.75 118.67C316.87 96.85 318.64 78.65 322.98 64.56C328.47 46.77 338.13 35.49 351.69 31.05L352.31 32.95C322.94 42.57 318.39 84.83 319.75 118.58C321.23 155.43 329.88 190.41 329.97 190.76L328.03 191.24Z" />
	<path id="Layer" class="shp1" d="M438.42 387.91C424.61 406.04 440.44 441.35 440.44 441.35C440.44 441.35 478.69 447.26 492.51 429.13C506.32 411 490.49 375.69 490.49 375.69C490.49 375.69 452.24 369.78 438.42 387.91Z" />
	<path id="Layer" class="shp1" d="M175.57 417.59C187.01 430.93 216.18 424.67 216.18 424.67C216.18 424.67 226.8 396.8 215.36 383.46C203.92 370.12 174.75 376.37 174.75 376.37C174.75 376.37 164.13 404.25 175.57 417.59Z" />
	<path id="Layer" class="shp5" d="M488.52 465.88C376.71 405.08 288.59 408.3 234.37 421.72C175.66 436.24 143 465.45 142.67 465.74L141.33 464.26C141.65 463.96 174.7 434.42 233.88 419.78C268.62 411.19 305.45 409.32 343.36 414.23C390.71 420.36 439.87 437.15 489.48 464.12L488.52 465.88Z" />
	<path id="Layer" class="shp5" d="M314.5 287L316.5 287L316.5 412.56L314.5 412.56L314.5 287Z" />
	<path id="Layer" class="shp1" d="M316 395C276.18 395 244 362.82 244 323C244 283.18 276.18 251 316 251C355.82 251 388 283.18 388 323C388 362.82 355.82 395 316 395Z" />
	<path id="Layer" class="shp1" d="M316 256C286.14 256 262 231.86 262 202C262 172.14 286.14 148 316 148C345.86 148 370 172.14 370 202C370 231.86 345.86 256 316 256Z" />
	<path id="Layer" class="shp1" d="M316 154C292.77 154 274 135.23 274 112C274 88.77 292.77 70 316 70C339.23 70 358 88.77 358 112C358 135.23 339.23 154 316 154Z" />
	<path id="Layer" class="shp6" d="M283 475.37C283 475.37 274.17 445.37 284.66 423.3C285.77 421.01 286.69 418.64 287.41 416.2C288.13 413.76 288.66 411.27 288.99 408.75C289.31 406.23 289.43 403.69 289.35 401.15C289.27 398.6 288.98 396.07 288.49 393.58C288.25 392.39 287.98 391.2 287.68 390.02C287.38 388.84 287.06 387.67 286.7 386.51C286.35 385.34 285.98 384.19 285.57 383.04C285.17 381.89 284.74 380.76 284.28 379.63" />
	<path id="Layer" class="shp7" d="M290.82 365.68C290.82 369.36 284.16 380.01 284.16 380.01C284.16 380.01 277.5 369.35 277.5 365.68C277.43 363.87 278.1 362.11 279.36 360.8C280.61 359.5 282.34 358.76 284.15 358.76C285.97 358.76 287.7 359.5 288.95 360.8C290.21 362.11 290.88 363.87 290.81 365.68L290.82 365.68Z" />
	<path id="Layer" class="shp7" d="M301.82 386.04C299.82 389.13 288.44 394.46 288.44 394.46C288.44 394.46 288.65 381.9 290.64 378.81C291.64 377.42 293.13 376.46 294.81 376.14C296.5 375.82 298.24 376.16 299.68 377.09C301.11 378.02 302.14 379.47 302.54 381.14C302.93 382.81 302.67 384.56 301.81 386.04L301.82 386.04Z" />
	<path id="Layer" class="shp7" d="M301.34 420.83C298.06 422.48 285.54 421.34 285.54 421.34C285.54 421.34 292.06 410.6 295.34 408.94C296.91 408.23 298.69 408.15 300.31 408.72C301.93 409.29 303.27 410.46 304.05 412C304.82 413.53 304.97 415.31 304.47 416.95C303.96 418.6 302.84 419.98 301.34 420.82L301.34 420.83Z" />
	<path id="Layer" class="shp7" d="M295 447.08C292 449.27 279.52 450.25 279.52 450.25C279.52 450.25 284.13 438.56 287.09 436.38C288.5 435.26 290.31 434.76 292.1 434.99C293.89 435.23 295.51 436.18 296.59 437.63C297.66 439.08 298.1 440.91 297.8 442.69C297.5 444.47 296.5 446.06 295.01 447.08L295 447.08Z" />
	<path id="Layer" class="shp7" d="M274.47 395.19C277.11 397.75 289.39 400.4 289.39 400.4C289.39 400.4 286.39 388.2 283.75 385.64C282.47 384.49 280.79 383.89 279.07 383.95C277.36 384.01 275.73 384.73 274.53 385.96C273.33 387.2 272.66 388.85 272.65 390.57C272.64 392.29 273.29 393.94 274.48 395.19L274.47 395.19Z" />
	<path id="Layer" class="shp7" d="M267.5 425.95C270.78 427.6 283.3 426.46 283.3 426.46C283.3 426.46 276.78 415.72 273.5 414.06C271.92 413.18 270.04 412.98 268.31 413.51C266.57 414.04 265.13 415.26 264.32 416.88C263.5 418.49 263.38 420.38 263.98 422.09C264.58 423.8 265.85 425.19 267.5 425.94L267.5 425.95Z" />
	<path id="Layer" class="shp7" d="M264.83 456.8C267.83 458.99 280.31 459.97 280.31 459.97C280.31 459.97 275.7 448.28 272.74 446.1C271.33 444.98 269.52 444.48 267.73 444.71C265.94 444.95 264.32 445.9 263.24 447.35C262.17 448.8 261.73 450.63 262.03 452.41C262.33 454.19 263.33 455.78 264.82 456.8L264.83 456.8Z" />
	<path id="Layer" fill-rule="evenodd" class="shp8" d="M403.49 316.38C401.14 316.85 399.84 314.19 399.14 310.48C395.77 319.96 395.14 332.85 395.14 340.19C395.16 342.89 395.24 344.56 395.24 344.56C395.24 345.41 395.7 345.58 395.24 345.9C394.78 346.22 394.32 346.52 393.85 346.81C393.37 347.1 392.89 347.37 392.4 347.63C391.91 347.9 391.41 348.14 390.91 348.38C390.41 348.61 389.9 348.83 389.38 349.03L388.26 358.26C388.16 359.06 388.05 359.86 387.93 360.66C387.8 361.46 387.66 362.25 387.51 363.04C387.35 363.84 387.18 364.63 387 365.41C386.82 366.2 386.62 366.98 386.41 367.76L375.84 406.76C375.98 412.23 378.75 427.89 380.58 437.76C380.64 437.79 380.7 437.82 380.75 437.86C380.81 437.9 380.86 437.94 380.91 437.99C380.96 438.03 381 438.08 381.05 438.14C381.09 438.19 381.13 438.24 381.16 438.3C383.22 441.73 387 455.81 387 468.19C387 480.57 384.34 481.97 378.15 484.03C371.96 486.09 368.8 475.9 369.9 473.03C371.62 468.56 369.21 444.85 369.21 444.85L369.63 444.44L368.54 440.52L367.91 442.13C363.37 453.64 360.31 453.91 353.8 453.56C353.37 453.55 352.94 453.48 352.53 453.35C352.12 453.22 351.73 453.03 351.37 452.79C351.01 452.55 350.69 452.26 350.41 451.93C350.13 451.6 349.9 451.23 349.73 450.84C347.97 447.41 348.83 441.78 350.16 440.3C352.36 436.94 359.85 413.83 359.85 413.83L360.42 411.36L357.5 400.86C353.37 396.74 352 367.19 352 367.19L349.83 351.55C346.5 351.1 344.44 350.69 344.44 350.69C344.56 350.27 344.65 349.83 344.73 349.37L344.44 349.31C344.53 348.95 344.61 348.58 344.68 348.21C344.75 347.84 344.81 347.47 344.86 347.1C344.9 346.73 344.94 346.36 344.96 345.98C344.99 345.61 345 345.23 345 344.86C344.66 330.19 335.07 306.76 334.79 305.37C334.51 303.98 334.27 302.59 334.07 301.19C333.86 299.79 333.69 298.39 333.57 296.98C333.44 295.57 333.35 294.16 333.29 292.75C333.24 291.34 333.23 289.92 333.25 288.51C333.26 286.42 333.31 284.32 333.41 282.23C333.51 280.14 333.65 278.05 333.84 275.96C334.03 273.87 334.27 271.79 334.55 269.72C334.83 267.64 335.15 265.57 335.52 263.51C333.41 263.94 332.03 264.14 332.03 264.14L305.03 238.67C304.02 238.76 303 238.81 301.99 238.83C300.97 238.85 299.95 238.83 298.94 238.77C297.92 238.72 296.91 238.63 295.9 238.51C294.89 238.38 293.89 238.22 292.89 238.03L292.89 219.47C292.89 219.47 323.81 176.86 326.56 169.3C328.54 163.84 336.75 162.06 341.16 161.49C340.42 159.82 339.77 158.11 339.2 156.37C338.64 154.63 338.17 152.86 337.8 151.07C337.43 149.28 337.15 147.47 336.96 145.65C336.78 143.84 336.69 142.01 336.7 140.18C336.7 116.49 351.79 97.29 370.4 97.29C389.01 97.29 404.1 116.49 404.1 140.18C404.13 142.56 403.98 144.95 403.67 147.31C403.36 149.67 402.88 152.01 402.23 154.3C401.59 156.6 400.78 158.85 399.82 161.03C398.86 163.21 397.74 165.32 396.48 167.34C403.24 172.22 402.78 182.03 402.05 186.96C402.24 188.89 402.24 190.78 402.24 192.41C402.28 195.17 402.09 197.35 401.48 198.17C401.1 198.68 400.91 200.25 400.91 202.48C401.03 212.98 403.54 233.91 403.54 233.91L408.35 251.09C408.25 251.17 408.14 251.24 408.03 251.32L408.35 252.46C408.14 252.63 407.92 252.79 407.69 252.94C407.47 253.09 407.23 253.23 407 253.36C406.76 253.49 406.51 253.61 406.26 253.71C406.01 253.82 405.76 253.92 405.5 254L408.35 288.19C408.35 288.19 410.41 314.95 403.49 316.38ZM399.87 254.74C400.02 255.59 400.17 256.47 400.32 257.37L400.44 254.78L399.88 254.78L399.87 254.74ZM339.85 244C341.62 237.38 342.95 233.95 343.06 233.2C343.17 232.45 343.27 231.7 343.36 230.95C343.44 230.19 343.52 229.44 343.58 228.68C343.64 227.93 343.69 227.17 343.72 226.41C343.76 225.66 343.78 224.9 343.79 224.14C343.58 203.82 332.79 196.09 332.79 196.09L314.92 216.02C312.77 218.94 311.83 221.31 311.65 223.31C312.21 229.02 319.73 230.45 319.73 230.45C319.41 230.85 319.08 231.22 318.73 231.57C319.34 231.75 319.9 231.62 319.73 231.83C319.56 232.04 319.39 232.24 319.21 232.44C319.04 232.64 318.86 232.83 318.67 233.02C318.48 233.21 318.29 233.39 318.09 233.57C317.9 233.75 317.7 233.92 317.49 234.09L332.1 250.39C332.1 250.39 338.73 249.32 339.88 244.01L339.85 244Z" />
	<path id="Layer" class="shp9" d="M403.79 247.82L407.16 288.19C407.16 288.19 409.16 314.44 402.45 315.78C395.74 317.12 397.74 292.22 397.74 292.22L399.74 247.8L403.79 247.82Z" />
	<path id="Layer" class="shp10" d="M407.16 253.19L402.45 236.36C402.45 236.36 398.45 202.71 400.45 200.02C402.45 197.33 399.78 179.16 399.78 179.16L391.37 190.6L389 214.19L395.72 255.19C395.72 255.19 403.12 256.57 407.16 253.19Z" />
	<path id="Layer" class="shp11" d="M371 185.25C352.75 185.25 338 166.48 338 143.25C338 120.02 352.75 101.25 371 101.25C389.25 101.25 404 120.02 404 143.25C404 166.48 389.25 185.25 371 185.25Z" />
	<path id="Layer" class="shp12" d="M407.16 251.86L402.45 235.03C402.45 235.03 398.45 201.38 400.45 198.69C402.45 196 399.78 177.83 399.78 177.83L391.37 189.27L389 212.82L395.73 253.87C395.73 253.87 403.12 255.19 407.16 251.86Z" />
	<path id="Layer" class="shp12" d="M359.64 411.28C359.64 411.28 352.15 434.96 350.15 437.2C348.15 439.44 347.34 449.84 353.71 450.2C360.08 450.56 363.08 450.28 367.53 439.01C371.98 427.74 376.53 414.34 375.89 410.47C375.25 406.6 359.64 411.28 359.64 411.28Z" />
	<path id="Layer" class="shp13" d="M359.64 411.28C359.64 411.28 352.31 433.91 350.15 437.2C348.5 439.72 347.34 449.84 353.71 450.2C360.08 450.56 363.08 450.28 367.53 439.01C371.98 427.74 376.53 414.34 375.89 410.47C375.25 406.6 359.64 411.28 359.64 411.28Z" />
	<path id="Layer" class="shp11" d="M348.61 124.66L386.3 124.66L386.3 167.73L348.61 167.73L348.61 124.66Z" />
	<path id="Layer" class="shp10" d="M348.61 124.66L386.3 124.66L386.3 167.73L348.61 167.73L348.61 124.66Z" />
	<path id="Layer" class="shp9" d="M358 139.46C358 139.46 362 156.29 358 160.32C358 160.32 349.92 165.03 347.9 163.69C345.88 162.35 337.8 166.38 337.8 166.38L350.59 194.65L377.51 196.65L391.64 192.65L391.64 177.19L390.97 167.77C390.97 167.77 374.82 167.77 375.49 161.71C376.16 155.65 377.49 139.5 377.49 139.5L358 139.46Z" />
	<path id="Layer" class="shp9" d="M389.66 339.35L387.54 356.84C387.45 357.62 387.34 358.41 387.21 359.19C387.09 359.97 386.95 360.75 386.8 361.52C386.65 362.3 386.49 363.07 386.31 363.84C386.13 364.61 385.94 365.38 385.73 366.14L369.47 426.14L358.7 415.41L370.81 362.91L374.18 332.62L389.66 339.35Z" />
	<path id="Layer" class="shp13" d="M389.66 339.35L387.54 356.84C387.45 357.62 387.34 358.41 387.21 359.19C387.09 359.97 386.95 360.75 386.8 361.52C386.65 362.3 386.49 363.07 386.31 363.84C386.13 364.61 385.94 365.38 385.73 366.14L369.47 426.14L358.7 415.41L370.81 362.91L374.18 332.62L389.66 339.35Z" />
	<path id="Layer" class="shp9" d="M348.61 341.37L352 365.6C352 365.6 353.35 394.54 357.38 398.6L370.84 447.06L381.61 443.06C381.61 443.06 374.21 405.37 375.55 402.68C376.89 399.99 374.2 377.1 374.2 377.1L374.2 361.56C374.2 361.56 374.2 346.08 373.53 341.37C372.86 336.66 348.61 341.37 348.61 341.37Z" />
	<path id="Layer" class="shp12" d="M368.8 441.65C368.8 441.65 371.16 464.87 369.47 469.24C368.39 472.05 371.47 482.03 377.55 480.01C383.63 477.99 386.3 476.64 386.3 464.53C386.3 452.42 382.6 438.62 380.58 435.25C378.56 431.88 368.8 441.65 368.8 441.65Z" />
	<path id="Layer" class="shp10" d="M354.49 186.71C351.75 186.83 347.05 183.96 344.15 165.22C344.15 165.22 329.76 165.72 327.07 173.12C324.38 180.52 294.07 222.25 294.07 222.25L294.07 239.08C294.07 239.08 312.24 243.08 320.32 233.02C320.32 233.02 306.19 230.33 315.61 217.54L333.11 198.02C333.11 198.02 347.24 208.12 343.21 235.71C343.21 235.71 329.08 276.76 335.13 305.03C335.13 305.03 347.92 337.34 344.55 349.45C344.55 349.45 378.2 356.18 394.35 344.74C394.35 344.74 393 317.82 400.41 305.03C407.82 292.24 394.35 234.36 394.35 234.36C394.35 234.36 386.09 218.06 391.48 212C396.87 205.94 392.48 192 392.48 192C392.48 192 405.79 173.11 390.99 169.08C390.99 169.08 392.99 190.62 383.59 187.92L366.76 186.66C365.74 186.6 364.72 186.56 363.69 186.54C362.67 186.51 361.65 186.5 360.62 186.51C359.6 186.51 358.58 186.53 357.56 186.56C356.53 186.6 355.51 186.65 354.49 186.71L354.49 186.71Z" />
	<path id="Layer" class="shp12" d="M354.49 185.36C351.75 185.48 347.05 182.61 344.15 163.87C344.15 163.87 329.76 164.37 327.07 171.77C324.38 179.17 294.07 220.9 294.07 220.9L294.07 237.73C294.07 237.73 312.24 241.73 320.32 231.67C320.32 231.67 306.19 228.98 315.61 216.19L333.11 196.67C333.11 196.67 347.24 206.77 343.21 234.36C343.21 234.36 329.08 275.41 335.13 303.68C335.13 303.68 347.92 335.99 344.55 348.1C344.55 348.1 378.2 354.83 394.35 343.39C394.35 343.39 393 316.47 400.41 303.68C407.82 290.89 394.35 233.01 394.35 233.01C394.35 233.01 388.29 217.53 393.68 211.47C399.07 205.41 394.35 190.61 394.35 190.61L400.41 191.96C400.41 191.96 405.79 171.77 390.99 167.73C390.99 167.73 392.99 189.27 383.59 186.57L366.76 185.31C365.74 185.25 364.72 185.21 363.69 185.19C362.67 185.16 361.65 185.15 360.62 185.16C359.6 185.16 358.58 185.18 357.56 185.21C356.53 185.25 355.51 185.3 354.49 185.36L354.49 185.36Z" />
	<path id="Layer" class="shp9" d="M315 231.67L332.45 251.19C332.45 251.19 338.95 250.19 340.07 244.94C340.07 244.94 360.71 247.15 356 254.55C351.29 261.95 332.44 264.65 332.44 264.65L297.44 231.65L315 231.67Z" />
	<path id="Layer" class="shp10" d="M376.16 156.34C376.82 149.34 377.55 140.48 377.55 140.48L358 140.48C358.25 141.55 358.47 142.62 358.67 143.7C358.87 144.77 359.04 145.85 359.19 146.94C359.34 148.02 359.47 149.11 359.57 150.2C359.67 151.29 359.74 152.39 359.79 153.48C360.97 154.28 362.23 154.95 363.55 155.49C364.87 156.02 366.25 156.42 367.65 156.66C369.06 156.91 370.48 157 371.91 156.95C373.33 156.9 374.75 156.69 376.13 156.34L376.16 156.34Z" />
	<path id="Layer" class="shp9" d="M370.15 155.95C358.98 155.95 349.96 146.93 349.96 135.76C349.96 124.59 358.98 115.57 370.15 115.57C381.32 115.57 390.34 124.59 390.34 135.76C390.34 146.93 381.32 155.95 370.15 155.95Z" />
	<path id="Layer" class="shp10" d="M295.47 234.04C295.47 234.04 306 241.19 316.21 232.19L308.21 225.93L294.79 225.93L295.47 234.04Z" />
	<path id="Layer" class="shp12" d="M294.79 233.37C294.79 233.37 305.33 240.51 315.54 231.56L307.54 225.3L294.12 225.3L294.79 233.37Z" />
	<path id="Layer" class="shp10" d="M391.71 197.7C391.9 199.32 392.03 200.95 392.1 202.58C392.16 204.21 392.17 205.84 392.11 207.47C392.05 209.1 391.93 210.73 391.74 212.35C391.56 213.97 391.31 215.59 391 217.19C389 228.63 389.19 243.44 392.11 246.13" />
	<path id="Layer" class="shp10" d="M342 125.03C342 125.03 348 132.03 364 129.38C366.4 128.99 368.82 128.71 371.25 128.55C373.68 128.39 376.11 128.35 378.54 128.42C380.97 128.5 383.4 128.69 385.81 128.99C388.23 129.3 390.63 129.72 393 130.25L389 118.95L378 110.25L362 110.25L348 118.95L342 125.03Z" />
	<path id="Layer" class="shp11" d="M342 124.03C342 124.03 348 131.03 364 128.38C366.4 127.99 368.82 127.71 371.25 127.55C373.68 127.39 376.11 127.35 378.54 127.42C380.97 127.5 383.4 127.69 385.81 127.99C388.23 128.3 390.63 128.72 393 129.25L389 117.95L378 109.25L362 109.25L348 117.95L342 124.03Z" />
</svg>